<svg width="1254" height="296" viewBox="0 0 1254 296" fill="none" xmlns="http://www.w3.org/2000/svg">
<path fill-rule="evenodd" clip-rule="evenodd" d="M481.468 51.593L289 294.983H402C402 294.983 476.502 193.585 476.5 197.983C476.498 202.38 580.5 202.376 580.5 197.983C580.5 193.589 582 294.983 582 294.983H656V50.8045C656 31.9408 641.051 16.4706 622.198 15.825L583 14.4826L561.213 14.0223C530.214 13.3674 500.7 27.2729 481.468 51.593ZM581.5 102.483L582.5 146.983H505.5C528.284 110.427 543.647 100.417 581.5 102.483Z" fill="#3176AF"/>
<path d="M289 294.983L288.608 294.672L287.967 295.483H289V294.983ZM481.468 51.593L481.075 51.2828L481.075 51.2828L481.468 51.593ZM402 294.983V295.483H402.253L402.403 295.279L402 294.983ZM476.5 197.983L476 197.982L476.5 197.983ZM580.5 197.983L580 197.983L580.5 197.983ZM582 294.983L581.5 294.99L581.507 295.483H582V294.983ZM656 294.983V295.483H656.5V294.983H656ZM622.198 15.825L622.181 16.3247L622.198 15.825ZM583 14.4826L583.017 13.9828L583.011 13.9827L583 14.4826ZM561.213 14.0223L561.223 13.5224L561.213 14.0223ZM582.5 146.983V147.483H583.011L583 146.972L582.5 146.983ZM581.5 102.483L582 102.472L581.989 102.009L581.527 101.984L581.5 102.483ZM505.5 146.983L505.076 146.719L504.599 147.483H505.5V146.983ZM289.392 295.293L481.86 51.9031L481.075 51.2828L288.608 294.672L289.392 295.293ZM402 294.483H289V295.483H402V294.483ZM477 197.983C477 197.863 476.971 197.556 476.669 197.406C476.416 197.279 476.171 197.378 476.083 197.417C475.859 197.517 475.596 197.73 475.325 197.979C474.757 198.501 473.941 199.384 472.921 200.561C470.876 202.922 467.96 206.53 464.467 210.975C457.479 219.867 448.164 232.133 438.851 244.533C429.537 256.934 420.224 269.473 413.239 278.91C409.746 283.629 406.836 287.573 404.799 290.338C403.78 291.72 402.98 292.807 402.434 293.549C402.161 293.919 401.952 294.204 401.811 294.396C401.74 294.492 401.687 294.564 401.651 294.613C401.633 294.637 401.62 294.656 401.611 294.668C401.606 294.674 401.603 294.679 401.6 294.682C401.599 294.683 401.598 294.685 401.598 294.685C401.597 294.686 401.597 294.687 402 294.983C402.403 295.279 402.403 295.278 402.404 295.277C402.404 295.277 402.405 295.276 402.406 295.274C402.409 295.271 402.412 295.266 402.416 295.26C402.425 295.248 402.439 295.23 402.457 295.205C402.493 295.157 402.546 295.084 402.617 294.988C402.757 294.796 402.967 294.512 403.239 294.141C403.785 293.4 404.585 292.313 405.604 290.931C407.641 288.167 410.551 284.224 414.043 279.505C421.027 270.069 430.339 257.532 439.65 245.134C448.963 232.735 458.272 220.476 465.253 211.593C468.745 207.15 471.649 203.558 473.677 201.215C474.695 200.041 475.479 199.196 476.002 198.716C476.277 198.463 476.432 198.356 476.49 198.331C476.543 198.307 476.405 198.391 476.223 198.301C476.117 198.248 476.055 198.162 476.025 198.092C476 198.031 476 197.986 476 197.982L477 197.983ZM580 197.983C580 197.854 580.091 197.857 579.928 197.963C579.788 198.055 579.546 198.163 579.182 198.278C578.459 198.506 577.374 198.725 575.959 198.929C573.138 199.338 569.093 199.681 564.222 199.955C554.484 200.504 541.494 200.779 528.499 200.779C515.504 200.779 502.515 200.505 492.777 199.956C487.907 199.682 483.862 199.339 481.04 198.93C479.625 198.725 478.54 198.507 477.818 198.279C477.454 198.164 477.212 198.055 477.072 197.964C476.91 197.857 477 197.855 477 197.983L476 197.982C476 198.385 476.293 198.649 476.524 198.8C476.778 198.966 477.12 199.107 477.517 199.232C478.318 199.485 479.467 199.713 480.897 199.92C483.762 200.335 487.842 200.68 492.721 200.955C502.484 201.505 515.494 201.779 528.499 201.779C541.505 201.779 554.515 201.504 564.278 200.954C569.157 200.679 573.237 200.334 576.103 199.919C577.532 199.712 578.681 199.484 579.482 199.232C579.879 199.106 580.222 198.966 580.475 198.8C580.706 198.649 581 198.385 581 197.983L580 197.983ZM582 294.983C582.5 294.975 582.5 294.975 582.5 294.974C582.5 294.973 582.5 294.972 582.5 294.971C582.5 294.967 582.5 294.963 582.5 294.957C582.499 294.944 582.499 294.926 582.499 294.902C582.498 294.853 582.497 294.78 582.496 294.684C582.493 294.493 582.489 294.208 582.483 293.838C582.472 293.096 582.456 292.009 582.435 290.627C582.394 287.863 582.336 283.92 582.266 279.201C582.125 269.764 581.937 257.227 581.75 244.828C581.562 232.428 581.375 220.166 581.234 211.278C581.164 206.834 581.105 203.233 581.064 200.88C581.044 199.705 581.028 198.84 581.017 198.337C581.011 198.089 581.007 197.922 581.004 197.852C581.004 197.848 581.002 197.806 580.997 197.77C580.992 197.744 580.929 197.584 580.836 197.472C580.394 197.356 580.022 197.703 580.009 197.761C580.006 197.778 580.003 197.804 580.003 197.813C580.002 197.819 580.002 197.828 580.002 197.833C580 197.863 580 197.917 580 197.983L581 197.983C581 197.949 581 197.923 581 197.903C581 197.893 581 197.886 581.001 197.88C581.001 197.874 581.001 197.873 581.001 197.874C581.001 197.874 581 197.88 581 197.883C581 197.889 580.997 197.912 580.995 197.928C580.982 197.985 580.61 198.332 580.168 198.216C580.075 198.104 580.012 197.945 580.008 197.921C580.004 197.891 580.004 197.869 580.005 197.897C580.007 197.953 580.011 198.106 580.017 198.359C580.028 198.859 580.044 199.722 580.065 200.898C580.106 203.25 580.164 206.849 580.234 211.293C580.375 220.181 580.563 232.443 580.75 244.843C580.938 257.242 581.125 269.779 581.266 279.216C581.336 283.934 581.395 287.878 581.436 290.642C581.456 292.024 581.472 293.111 581.483 293.852C581.489 294.223 581.493 294.508 581.496 294.699C581.497 294.795 581.498 294.868 581.499 294.917C581.499 294.941 581.5 294.959 581.5 294.972C581.5 294.978 581.5 294.982 581.5 294.985C581.5 294.987 581.5 294.988 581.5 294.989C581.5 294.99 581.5 294.99 582 294.983ZM656 294.483H582V295.483H656V294.483ZM655.5 50.8045V294.983H656.5V50.8045H655.5ZM622.181 16.3247C640.764 16.9611 655.5 32.2103 655.5 50.8045H656.5C656.5 31.6713 641.337 15.9801 622.215 15.3253L622.181 16.3247ZM582.983 14.9823L622.181 16.3247L622.215 15.3253L583.017 13.9829L582.983 14.9823ZM561.202 14.5222L582.989 14.9825L583.011 13.9827L561.223 13.5224L561.202 14.5222ZM481.86 51.9031C500.995 27.7058 530.36 13.8706 561.202 14.5222L561.223 13.5224C530.068 12.8642 500.404 26.8399 481.075 51.2828L481.86 51.9031ZM583 146.972L582 102.472L581 102.495L582 146.995L583 146.972ZM505.5 147.483H582.5V146.483H505.5V147.483ZM581.527 101.984C562.558 100.949 549.137 102.933 537.593 109.821C526.064 116.699 516.475 128.429 505.076 146.719L505.924 147.248C517.309 128.982 526.793 117.429 538.106 110.68C549.402 103.939 562.59 101.952 581.473 102.983L581.527 101.984Z" fill="#3176AF"/>
<path d="M1 1H48.3575C52.2463 1 55.931 2.74099 58.4003 5.74525L223 206L377.5 12H442.574C454.921 12 461.981 26.0839 454.592 35.9762L265.999 288.476C263.168 292.267 258.713 294.5 253.982 294.5H196.466C191.764 294.5 187.334 292.295 184.499 288.543L88.5 161.5V294.5H1V1Z" fill="#3176AF" stroke="#3176AF"/>
<path d="M679 69V295H753.5V135L957 295H1002.5V240L802 84.5H948.5V12H736C704.52 12 679 37.5198 679 69Z" fill="#DD3C30" stroke="#DD3C30"/>
<path d="M1017 64V295H1218V226.5H1084V82.5H1218L1253 13H1068C1039.83 13 1017 35.8335 1017 64Z" fill="#3176AF" stroke="#3176AF"/>
</svg>
